<svg xmlns="http://www.w3.org/2000/svg" viewBox="0 0 512 512"><defs><linearGradient id="g" x1="0" y1="0" x2="1" y2="1"><stop offset="0" stop-color="#314a78"/><stop offset=".48" stop-color="#1d293d"/><stop offset="1" stop-color="#172f35"/></linearGradient><radialGradient id="h" cx="72%" cy="78%" r="70%"><stop offset="0" stop-color="#534889" stop-opacity=".6"/><stop offset="1" stop-color="#111419" stop-opacity="0"/></radialGradient></defs><rect width="512" height="512" rx="112" fill="#0d1118"/><rect x="38" y="38" width="436" height="436" rx="96" fill="url(#g)" stroke="#fff" stroke-opacity=".13"/><rect x="38" y="38" width="436" height="436" rx="96" fill="url(#h)"/><path d="M171 169c-10-10-10-27 0-37 10-10 27-10 37 0l48 48 48-48c10-10 27-10 37 0 10 10 10 27 0 37l-48 48 48 48c10 10 10 27 0 37-10 10-27 10-37 0l-48-48-48 48c-10 10-27 10-37 0-10-10-10-27 0-37l48-48-48-48z" fill="#f7f8ff"/></svg>