<svg xmlns="http://www.w3.org/2000/svg" viewBox="0 0 180 180"><defs><linearGradient id="g" x1="0" y1="0" x2="1" y2="1"><stop offset="0" stop-color="#314a78"/><stop offset=".48" stop-color="#1d293d"/><stop offset="1" stop-color="#172f35"/></linearGradient><radialGradient id="h" cx="72%" cy="78%" r="70%"><stop offset="0" stop-color="#534889" stop-opacity=".6"/><stop offset="1" stop-color="#111419" stop-opacity="0"/></radialGradient></defs><rect width="180" height="180" rx="38" fill="#0d1118"/><rect x="13" y="13" width="154" height="154" rx="34" fill="url(#g)" stroke="#fff" stroke-opacity=".13"/><rect x="13" y="13" width="154" height="154" rx="34" fill="url(#h)"/><path d="M60 59c-4-4-4-10 0-13s10-4 13 0l17 17 17-17c4-4 10-4 13 0s4 10 0 13l-17 17 17 17c4 4 4 10 0 13s-10 4-13 0L90 89l-17 17c-4 4-10 4-13 0s-4-10 0-13l17-17-17-17z" fill="#f7f8ff"/></svg>